<svg width="22" height="22" viewBox="0 0 22 22" fill="none" xmlns="http://www.w3.org/2000/svg">
<path d="M21.5267 10.7196V10.3396C21.4749 8.96835 21.0344 7.64009 20.2567 6.50957C20.1489 6.35301 19.9857 6.24321 19.8001 6.20237C19.6145 6.16153 19.4202 6.1927 19.2567 6.28957C19.1754 6.33961 19.1048 6.40533 19.0491 6.4829C18.9934 6.56047 18.9537 6.64835 18.9323 6.74141C18.9109 6.83448 18.9082 6.93087 18.9244 7.02497C18.9406 7.11908 18.9754 7.20903 19.0267 7.28957C19.6291 8.17881 19.9751 9.21673 20.0267 10.2896V10.6796C20.0267 12.0196 20.0267 13.1796 19.0767 13.9496C18.8889 14.1202 18.6675 14.2496 18.4267 14.3296C18.3504 14.34 18.273 14.34 18.1967 14.3296H17.7567C16.8093 14.2495 15.8676 14.1126 14.9367 13.9196L13.8267 13.6996C12.5314 13.4249 11.1823 13.5721 9.97671 14.1196L9.76671 14.2496C9.68011 14.3055 9.58991 14.3556 9.49671 14.3996H9.43671C9.31207 14.4465 9.17989 14.4703 9.04671 14.4696C8.71242 14.4812 8.37968 14.4192 8.07206 14.2878C7.76444 14.1565 7.48949 13.9591 7.26671 13.7096C7.07506 13.4445 6.94583 13.1395 6.88869 12.8174C6.83154 12.4953 6.84796 12.1644 6.93671 11.8496C6.96797 11.7293 6.96887 11.6032 6.93933 11.4825C6.90978 11.3618 6.8507 11.2503 6.76742 11.1581C6.68413 11.0659 6.57924 10.9958 6.46217 10.9542C6.3451 10.9126 6.21951 10.9007 6.0967 10.9196C5.45115 11.0267 4.78875 10.9611 4.17671 10.7296C3.5421 10.5482 2.96624 10.2033 2.50671 9.72957C1.30671 8.13957 2.27671 6.20957 3.68671 5.09957C4.46268 4.50407 5.32183 4.02564 6.23671 3.67957C6.32792 3.64625 6.41157 3.59507 6.48276 3.52902C6.55395 3.46297 6.61124 3.38337 6.65128 3.29491C6.69133 3.20644 6.71332 3.11087 6.71596 3.01379C6.71861 2.91672 6.70187 2.82009 6.66671 2.72957C6.62938 2.63574 6.57374 2.55029 6.50302 2.47821C6.4323 2.40614 6.34792 2.34887 6.25482 2.30977C6.16172 2.27067 6.06176 2.25051 5.96078 2.25048C5.8598 2.25044 5.75983 2.27053 5.66671 2.30957C4.61631 2.72346 3.63246 3.28951 2.74671 3.98957C0.746705 5.57957 -0.413295 8.37957 1.29671 10.6496C1.93273 11.3597 2.7585 11.8732 3.67671 12.1296C4.21895 12.3272 4.78974 12.4353 5.3667 12.4496C5.32058 13.2689 5.57678 14.0766 6.08671 14.7196C6.44215 15.1256 6.8804 15.4507 7.37199 15.6732C7.86358 15.8957 8.39711 16.0104 8.93671 16.0096H9.06671H9.18671C9.41535 16.4808 9.75932 16.8867 10.1867 17.1896C10.4067 17.3396 10.6467 17.4796 10.8767 17.6196C11.5529 17.9522 12.1497 18.4262 12.6267 19.0096C12.7967 19.2796 12.9367 19.5596 13.0767 19.8396C13.2167 20.1196 13.2867 20.2396 13.3967 20.4296C13.6119 20.8858 13.9607 21.2659 14.3967 21.5196C14.6195 21.6335 14.8665 21.6918 15.1167 21.6896C15.3627 21.6955 15.6061 21.6379 15.8233 21.5223C16.0406 21.4067 16.2243 21.237 16.3567 21.0296C16.5052 20.7468 16.571 20.428 16.5467 20.1096V19.8496C16.5467 19.2696 16.4667 18.5996 16.7867 18.3096C16.9342 18.1916 17.0877 18.0815 17.2467 17.9796C17.7221 17.7231 18.1194 17.3431 18.3967 16.8796C18.5774 16.5426 18.7216 16.1872 18.8267 15.8196C19.247 15.6855 19.6375 15.4716 19.9767 15.1896C21.5867 13.9196 21.5467 12.2296 21.5267 10.7196ZM17.1067 16.1896C16.9398 16.4145 16.7245 16.599 16.4767 16.7296C16.2406 16.8662 16.0195 17.0271 15.8167 17.2096C15.4911 17.5725 15.2554 18.0068 15.1286 18.4775C15.0018 18.9483 14.9875 19.4423 15.0867 19.9196V20.1596C14.9305 20.0318 14.8042 19.8714 14.7167 19.6896L14.4267 19.1496C14.2709 18.8056 14.0939 18.4716 13.8967 18.1496C13.3022 17.3767 12.5441 16.7449 11.6767 16.2996L11.0467 15.9196C10.8741 15.7964 10.7279 15.64 10.6167 15.4596L10.7067 15.3996C11.6003 15.0343 12.5842 14.9505 13.5267 15.1596L14.6067 15.3696L15.9867 15.6296L16.4067 15.6996C16.6967 15.6996 16.9767 15.7896 17.2667 15.8196L17.1067 16.1896ZM6.50671 5.28957L8.26671 3.46957V1.05957C8.26671 0.860658 8.34572 0.669893 8.48638 0.52924C8.62703 0.388588 8.81779 0.30957 9.01671 0.30957C9.21562 0.30957 9.40638 0.388588 9.54704 0.52924C9.68769 0.669893 9.76671 0.860658 9.76671 1.05957V3.76957C9.76402 3.96007 9.68894 4.14241 9.55671 4.27957L7.68671 6.19957C7.86965 6.50106 7.96649 6.84692 7.9667 7.19957C7.9667 7.59513 7.84941 7.98181 7.62964 8.31071C7.40988 8.63961 7.09752 8.89595 6.73207 9.04733C6.36662 9.1987 5.96449 9.23831 5.57652 9.16114C5.18856 9.08397 4.8322 8.89349 4.55249 8.61378C4.27279 8.33408 4.08231 7.97771 4.00513 7.58975C3.92796 7.20179 3.96757 6.79966 4.11895 6.4342C4.27032 6.06875 4.52667 5.75639 4.85556 5.53663C5.18446 5.31687 5.57114 5.19957 5.96671 5.19957C6.14998 5.20468 6.33168 5.23496 6.50671 5.28957ZM11.0167 8.15957C11.2239 8.16188 11.4296 8.1956 11.6267 8.25957L12.2667 7.54957V1.05957C12.2667 0.860658 12.3457 0.669893 12.4864 0.52924C12.627 0.388588 12.8178 0.30957 13.0167 0.30957C13.2156 0.30957 13.4064 0.388588 13.547 0.52924C13.6877 0.669893 13.7667 0.860658 13.7667 1.05957V7.82957C13.7664 8.01083 13.6987 8.18549 13.5767 8.31957L12.7767 9.20957C12.933 9.4911 13.0155 9.80758 13.0167 10.1296C13.0167 10.5251 12.8994 10.9118 12.6796 11.2407C12.4599 11.5696 12.1475 11.826 11.7821 11.9773C11.4166 12.1287 11.0145 12.1683 10.6265 12.0911C10.2386 12.014 9.8822 11.8235 9.60249 11.5438C9.32279 11.2641 9.13231 10.9077 9.05513 10.5198C8.97796 10.1318 9.01757 9.72966 9.16895 9.3642C9.32032 8.99875 9.57667 8.68639 9.90557 8.46663C10.2345 8.24687 10.6211 8.12957 11.0167 8.12957V8.15957ZM15.0167 11.1096C15.0234 10.717 15.1455 10.3351 15.3678 10.0114C15.5901 9.68781 15.9027 9.43675 16.2667 9.28957V1.05957C16.2667 0.860658 16.3457 0.669893 16.4864 0.52924C16.627 0.388588 16.8178 0.30957 17.0167 0.30957C17.2156 0.30957 17.4064 0.388588 17.547 0.52924C17.6877 0.669893 17.7667 0.860658 17.7667 1.05957V9.28957C18.1307 9.43675 18.4433 9.68781 18.6656 10.0114C18.8879 10.3351 19.01 10.717 19.0167 11.1096C19.0167 11.64 18.806 12.1487 18.4309 12.5238C18.0558 12.8989 17.5471 13.1096 17.0167 13.1096C16.4863 13.1096 15.9776 12.8989 15.6025 12.5238C15.2274 12.1487 15.0167 11.64 15.0167 11.1096Z" fill="black"/>
</svg>
