<svg width="22" height="22" viewBox="0 0 22 22" fill="none" xmlns="http://www.w3.org/2000/svg">
<path id="Union" fill-rule="evenodd" clip-rule="evenodd" d="M11 0.25C9.48123 0.25 8.25002 1.48122 8.25002 3V3.75228C8.10444 3.80755 7.96097 3.86706 7.81976 3.93068L7.28769 3.3986C6.21375 2.32466 4.47254 2.32466 3.3986 3.3986C2.32466 4.47254 2.32466 6.21375 3.3986 7.28769L3.93068 7.81976C3.86706 7.96097 3.80755 8.10443 3.75229 8.25H3C1.48122 8.25 0.25 9.48122 0.25 11C0.25 12.5188 1.48122 13.75 3 13.75H3.75229C3.80755 13.8956 3.86706 14.039 3.93068 14.1802L3.3986 14.7123C2.32466 15.7863 2.32466 17.5275 3.3986 18.6014L3.92893 18.0711L3.3986 18.6014C4.47254 19.6753 6.21375 19.6753 7.28769 18.6014L7.81976 18.0693C7.96097 18.1329 8.10444 18.1925 8.25002 18.2477V19C8.25002 20.5188 9.48123 21.75 11 21.75C12.5188 21.75 13.75 20.5188 13.75 19V18.2477C13.8956 18.1924 14.039 18.1329 14.1802 18.0693L14.7123 18.6014C15.7863 19.6753 17.5275 19.6753 18.6014 18.6014C19.6753 17.5275 19.6753 15.7863 18.6014 14.7123L18.0693 14.1802C18.1329 14.039 18.1925 13.8956 18.2477 13.75H19C20.5188 13.75 21.75 12.5188 21.75 11C21.75 9.48122 20.5188 8.25 19 8.25H18.2477C18.1925 8.10443 18.1329 7.96096 18.0693 7.81976L18.6014 7.28769C19.6753 6.21375 19.6753 4.47254 18.6014 3.3986L18.0711 3.92893L18.6014 3.3986C17.5275 2.32466 15.7863 2.32466 14.7123 3.3986L14.1802 3.93067C14.039 3.86706 13.8956 3.80755 13.75 3.75229V3C13.75 1.48122 12.5188 0.25 11 0.25ZM9.75002 3C9.75002 2.30964 10.3097 1.75 11 1.75C11.6904 1.75 12.25 2.30964 12.25 3V4.28988C12.25 4.6217 12.468 4.91407 12.7861 5.00872C13.2013 5.1323 13.5985 5.29794 13.9729 5.50079C14.2647 5.65893 14.6258 5.60642 14.8605 5.37171L15.773 4.45926C16.2611 3.97111 17.0526 3.97111 17.5407 4.45926C18.0289 4.94742 18.0289 5.73887 17.5407 6.22703L16.6283 7.13947C16.3936 7.37419 16.3411 7.73528 16.4992 8.02713C16.7021 8.40148 16.8677 8.79872 16.9913 9.21394C17.0859 9.53197 17.3783 9.75 17.7101 9.75H19C19.6904 9.75 20.25 10.3096 20.25 11C20.25 11.6904 19.6904 12.25 19 12.25H17.7101C17.3783 12.25 17.0859 12.468 16.9913 12.7861C16.8677 13.2013 16.7021 13.5985 16.4992 13.9729C16.3411 14.2647 16.3936 14.6258 16.6283 14.8605L17.5407 15.773C18.0289 16.2611 18.0289 17.0526 17.5407 17.5407C17.0526 18.0289 16.2611 18.0289 15.773 17.5407L14.8605 16.6283C14.6258 16.3936 14.2647 16.3411 13.9729 16.4992C13.5985 16.7021 13.2013 16.8677 12.7861 16.9913C12.4681 17.0859 12.25 17.3783 12.25 17.7101V19C12.25 19.6904 11.6904 20.25 11 20.25C10.3097 20.25 9.75002 19.6904 9.75002 19V17.7101C9.75002 17.3783 9.53198 17.0859 9.21395 16.9913C8.79873 16.8677 8.40148 16.7021 8.02713 16.4992C7.73528 16.3411 7.37419 16.3936 7.13948 16.6283L6.22703 17.5407C5.73887 18.0289 4.94742 18.0289 4.45926 17.5407C3.97111 17.0526 3.97111 16.2611 4.45926 15.773L5.37171 14.8605C5.60643 14.6258 5.65894 14.2647 5.50079 13.9729C5.29794 13.5985 5.1323 13.2013 5.00872 12.7861C4.91407 12.468 4.6217 12.25 4.28988 12.25H3C2.30964 12.25 1.75 11.6904 1.75 11C1.75 10.3096 2.30964 9.75 3 9.75H4.28988C4.62169 9.75 4.91407 9.53197 5.00872 9.21394C5.1323 8.79872 5.29794 8.40148 5.50079 8.02713C5.65894 7.73528 5.60643 7.37419 5.37171 7.13948L4.45926 6.22703C3.97111 5.73887 3.97111 4.94742 4.45926 4.45926C4.94742 3.97111 5.73887 3.97111 6.22703 4.45926L7.13948 5.37171C7.37419 5.60643 7.73528 5.65894 8.02713 5.50079C8.40149 5.29793 8.79873 5.13229 9.21395 5.00872C9.53198 4.91407 9.75002 4.62169 9.75002 4.28988V3ZM8.75 11C8.75 9.75736 9.75736 8.75 11 8.75C12.2426 8.75 13.25 9.75736 13.25 11C13.25 12.2426 12.2426 13.25 11 13.25C9.75736 13.25 8.75 12.2426 8.75 11ZM11 7.25C8.92893 7.25 7.25 8.92893 7.25 11C7.25 13.0711 8.92893 14.75 11 14.75C13.0711 14.75 14.75 13.0711 14.75 11C14.75 8.92893 13.0711 7.25 11 7.25Z" fill="black"/>
</svg>
