<svg width="20" height="20" viewBox="0 0 20 20" fill="none" xmlns="http://www.w3.org/2000/svg">
<path id="Union" fill-rule="evenodd" clip-rule="evenodd" d="M9.69534 0.314641C9.88926 0.228453 10.1106 0.228453 10.3045 0.314641L19.3045 4.31464C19.5754 4.43502 19.7499 4.70361 19.7499 5C19.7499 5.29639 19.5754 5.56498 19.3045 5.68536L10.3045 9.68536C10.1106 9.77155 9.88926 9.77155 9.69534 9.68536L0.695339 5.68536C0.424493 5.56498 0.249943 5.29639 0.249943 5C0.249943 4.70361 0.424493 4.43502 0.695339 4.31464L9.69534 0.314641ZM2.8466 5L9.99994 8.17926L17.1533 5L9.99994 1.82074L2.8466 5ZM0.314584 9.6954C0.482812 9.31688 0.926034 9.14641 1.30455 9.31464L9.99994 13.1793L18.6953 9.31464C19.0739 9.14641 19.5171 9.31688 19.6853 9.6954C19.8535 10.0739 19.6831 10.5171 19.3045 10.6854L10.3045 14.6854C10.1106 14.7715 9.88926 14.7715 9.69534 14.6854L0.695339 10.6854C0.316826 10.5171 0.146356 10.0739 0.314584 9.6954ZM1.30455 14.3146C0.926034 14.1464 0.482812 14.3169 0.314584 14.6954C0.146356 15.0739 0.316826 15.5171 0.695339 15.6854L9.69534 19.6854C9.88926 19.7715 10.1106 19.7715 10.3045 19.6854L19.3045 15.6854C19.6831 15.5171 19.8535 15.0739 19.6853 14.6954C19.5171 14.3169 19.0739 14.1464 18.6953 14.3146L9.99994 18.1793L1.30455 14.3146Z" fill="black"/>
</svg>
